<svg xmlns="http://www.w3.org/2000/svg" width="820" height="278" viewBox="0 0 820 278">
  <rect width="820" height="278" rx="12" fill="#161b22"/>
  <text x="24" y="18" fill="#e6edf3" font-size="15" font-weight="700" font-family="Segoe UI, Arial, sans-serif">Most Used Languages</text>
  <rect x="24.0" y="24" width="243.6" height="10" fill="#3178C6" rx="2"/><rect x="267.6" y="24" width="183.4" height="10" fill="#3776AB" rx="2"/><rect x="451.1" y="24" width="121.5" height="10" fill="#8B949E" rx="2"/><rect x="572.6" y="24" width="68.6" height="10" fill="#563D7C" rx="2"/><rect x="641.2" y="24" width="63.3" height="10" fill="#F7DF1E" rx="2"/><rect x="704.5" y="24" width="34.5" height="10" fill="#E34F26" rx="2"/><rect x="739.0" y="24" width="25.6" height="10" fill="#DEA584" rx="2"/><rect x="764.7" y="24" width="13.4" height="10" fill="#FFD700" rx="2"/><rect x="778.1" y="24" width="7.5" height="10" fill="#A8B9CC" rx="2"/><rect x="785.6" y="24" width="4.2" height="10" fill="#89E051" rx="2"/><rect x="789.7" y="24" width="2.2" height="10" fill="#00599C" rx="2"/><rect x="791.9" y="24" width="2.1" height="10" fill="#8B949E" rx="2"/><rect x="794.0" y="24" width="1.9" height="10" fill="#ED8B00" rx="2"/><rect x="795.8" y="24" width="0.2" height="10" fill="#8B949E" rx="2"/>
  
      <circle cx="31" cy="65" r="6" fill="#3178C6"/>
      <text x="44" y="70" fill="#e6edf3" font-size="13" font-family="Segoe UI, Arial, sans-serif">
        <tspan font-weight="600">TypeScript</tspan>
        <tspan fill="#8b949e"> 31.56%</tspan>
      </text>
      <circle cx="417" cy="65" r="6" fill="#3776AB"/>
      <text x="430" y="70" fill="#e6edf3" font-size="13" font-family="Segoe UI, Arial, sans-serif">
        <tspan font-weight="600">Python</tspan>
        <tspan fill="#8b949e"> 23.76%</tspan>
      </text>
      <circle cx="31" cy="93" r="6" fill="#8B949E"/>
      <text x="44" y="98" fill="#e6edf3" font-size="13" font-family="Segoe UI, Arial, sans-serif">
        <tspan font-weight="600">Makefile</tspan>
        <tspan fill="#8b949e"> 15.74%</tspan>
      </text>
      <circle cx="417" cy="93" r="6" fill="#563D7C"/>
      <text x="430" y="98" fill="#e6edf3" font-size="13" font-family="Segoe UI, Arial, sans-serif">
        <tspan font-weight="600">CSS</tspan>
        <tspan fill="#8b949e"> 8.89%</tspan>
      </text>
      <circle cx="31" cy="121" r="6" fill="#F7DF1E"/>
      <text x="44" y="126" fill="#e6edf3" font-size="13" font-family="Segoe UI, Arial, sans-serif">
        <tspan font-weight="600">JavaScript</tspan>
        <tspan fill="#8b949e"> 8.20%</tspan>
      </text>
      <circle cx="417" cy="121" r="6" fill="#E34F26"/>
      <text x="430" y="126" fill="#e6edf3" font-size="13" font-family="Segoe UI, Arial, sans-serif">
        <tspan font-weight="600">HTML</tspan>
        <tspan fill="#8b949e"> 4.47%</tspan>
      </text>
      <circle cx="31" cy="149" r="6" fill="#DEA584"/>
      <text x="44" y="154" fill="#e6edf3" font-size="13" font-family="Segoe UI, Arial, sans-serif">
        <tspan font-weight="600">Rust</tspan>
        <tspan fill="#8b949e"> 3.32%</tspan>
      </text>
      <circle cx="417" cy="149" r="6" fill="#FFD700"/>
      <text x="430" y="154" fill="#e6edf3" font-size="13" font-family="Segoe UI, Arial, sans-serif">
        <tspan font-weight="600">Portugol</tspan>
        <tspan fill="#8b949e"> 1.74%</tspan>
      </text>
      <circle cx="31" cy="177" r="6" fill="#A8B9CC"/>
      <text x="44" y="182" fill="#e6edf3" font-size="13" font-family="Segoe UI, Arial, sans-serif">
        <tspan font-weight="600">C</tspan>
        <tspan fill="#8b949e"> 0.97%</tspan>
      </text>
      <circle cx="417" cy="177" r="6" fill="#89E051"/>
      <text x="430" y="182" fill="#e6edf3" font-size="13" font-family="Segoe UI, Arial, sans-serif">
        <tspan font-weight="600">Shell</tspan>
        <tspan fill="#8b949e"> 0.54%</tspan>
      </text>
      <circle cx="31" cy="205" r="6" fill="#00599C"/>
      <text x="44" y="210" fill="#e6edf3" font-size="13" font-family="Segoe UI, Arial, sans-serif">
        <tspan font-weight="600">C++</tspan>
        <tspan fill="#8b949e"> 0.28%</tspan>
      </text>
      <circle cx="417" cy="205" r="6" fill="#8B949E"/>
      <text x="430" y="210" fill="#e6edf3" font-size="13" font-family="Segoe UI, Arial, sans-serif">
        <tspan font-weight="600">DTrace</tspan>
        <tspan fill="#8b949e"> 0.27%</tspan>
      </text>
      <circle cx="31" cy="233" r="6" fill="#ED8B00"/>
      <text x="44" y="238" fill="#e6edf3" font-size="13" font-family="Segoe UI, Arial, sans-serif">
        <tspan font-weight="600">Java</tspan>
        <tspan fill="#8b949e"> 0.24%</tspan>
      </text>
      <circle cx="417" cy="233" r="6" fill="#8B949E"/>
      <text x="430" y="238" fill="#e6edf3" font-size="13" font-family="Segoe UI, Arial, sans-serif">
        <tspan font-weight="600">Batchfile</tspan>
        <tspan fill="#8b949e"> 0.02%</tspan>
      </text>
</svg>