<svg xmlns="http://www.w3.org/2000/svg" width="820" height="306" viewBox="0 0 820 306">
  <rect width="820" height="306" rx="12" fill="#161b22"/>
  <text x="24" y="18" fill="#e6edf3" font-size="15" font-weight="700" font-family="Segoe UI, Arial, sans-serif">Most Used Languages</text>
  <rect x="24.0" y="24" width="283.0" height="10" fill="#8B949E" rx="2"/><rect x="307.0" y="24" width="213.2" height="10" fill="#A8B9CC" rx="2"/><rect x="520.2" y="24" width="61.7" height="10" fill="#DEA584" rx="2"/><rect x="581.9" y="24" width="51.9" height="10" fill="#8B949E" rx="2"/><rect x="633.8" y="24" width="51.6" height="10" fill="#3178C6" rx="2"/><rect x="685.4" y="24" width="38.8" height="10" fill="#3776AB" rx="2"/><rect x="724.2" y="24" width="31.7" height="10" fill="#00599C" rx="2"/><rect x="755.9" y="24" width="14.5" height="10" fill="#563D7C" rx="2"/><rect x="770.4" y="24" width="13.4" height="10" fill="#F7DF1E" rx="2"/><rect x="783.8" y="24" width="7.3" height="10" fill="#E34F26" rx="2"/><rect x="791.1" y="24" width="2.9" height="10" fill="#FFD700" rx="2"/><rect x="794.0" y="24" width="0.8" height="10" fill="#89E051" rx="2"/><rect x="794.8" y="24" width="0.8" height="10" fill="#8B949E" rx="2"/><rect x="795.7" y="24" width="0.4" height="10" fill="#ED8B00" rx="2"/><rect x="796.1" y="24" width="0.0" height="10" fill="#8B949E" rx="2"/>
  
      <circle cx="31" cy="65" r="6" fill="#8B949E"/>
      <text x="44" y="70" fill="#e6edf3" font-size="13" font-family="Segoe UI, Arial, sans-serif">
        <tspan font-weight="600">Makefile</tspan>
        <tspan fill="#8b949e"> 36.66%</tspan>
      </text>
      <circle cx="417" cy="65" r="6" fill="#A8B9CC"/>
      <text x="430" y="70" fill="#e6edf3" font-size="13" font-family="Segoe UI, Arial, sans-serif">
        <tspan font-weight="600">C</tspan>
        <tspan fill="#8b949e"> 27.62%</tspan>
      </text>
      <circle cx="31" cy="93" r="6" fill="#DEA584"/>
      <text x="44" y="98" fill="#e6edf3" font-size="13" font-family="Segoe UI, Arial, sans-serif">
        <tspan font-weight="600">Rust</tspan>
        <tspan fill="#8b949e"> 7.99%</tspan>
      </text>
      <circle cx="417" cy="93" r="6" fill="#8B949E"/>
      <text x="430" y="98" fill="#e6edf3" font-size="13" font-family="Segoe UI, Arial, sans-serif">
        <tspan font-weight="600">Pawn</tspan>
        <tspan fill="#8b949e"> 6.72%</tspan>
      </text>
      <circle cx="31" cy="121" r="6" fill="#3178C6"/>
      <text x="44" y="126" fill="#e6edf3" font-size="13" font-family="Segoe UI, Arial, sans-serif">
        <tspan font-weight="600">TypeScript</tspan>
        <tspan fill="#8b949e"> 6.68%</tspan>
      </text>
      <circle cx="417" cy="121" r="6" fill="#3776AB"/>
      <text x="430" y="126" fill="#e6edf3" font-size="13" font-family="Segoe UI, Arial, sans-serif">
        <tspan font-weight="600">Python</tspan>
        <tspan fill="#8b949e"> 5.03%</tspan>
      </text>
      <circle cx="31" cy="149" r="6" fill="#00599C"/>
      <text x="44" y="154" fill="#e6edf3" font-size="13" font-family="Segoe UI, Arial, sans-serif">
        <tspan font-weight="600">C++</tspan>
        <tspan fill="#8b949e"> 4.10%</tspan>
      </text>
      <circle cx="417" cy="149" r="6" fill="#563D7C"/>
      <text x="430" y="154" fill="#e6edf3" font-size="13" font-family="Segoe UI, Arial, sans-serif">
        <tspan font-weight="600">CSS</tspan>
        <tspan fill="#8b949e"> 1.88%</tspan>
      </text>
      <circle cx="31" cy="177" r="6" fill="#F7DF1E"/>
      <text x="44" y="182" fill="#e6edf3" font-size="13" font-family="Segoe UI, Arial, sans-serif">
        <tspan font-weight="600">JavaScript</tspan>
        <tspan fill="#8b949e"> 1.74%</tspan>
      </text>
      <circle cx="417" cy="177" r="6" fill="#E34F26"/>
      <text x="430" y="182" fill="#e6edf3" font-size="13" font-family="Segoe UI, Arial, sans-serif">
        <tspan font-weight="600">HTML</tspan>
        <tspan fill="#8b949e"> 0.95%</tspan>
      </text>
      <circle cx="31" cy="205" r="6" fill="#FFD700"/>
      <text x="44" y="210" fill="#e6edf3" font-size="13" font-family="Segoe UI, Arial, sans-serif">
        <tspan font-weight="600">Portugol</tspan>
        <tspan fill="#8b949e"> 0.37%</tspan>
      </text>
      <circle cx="417" cy="205" r="6" fill="#89E051"/>
      <text x="430" y="210" fill="#e6edf3" font-size="13" font-family="Segoe UI, Arial, sans-serif">
        <tspan font-weight="600">Shell</tspan>
        <tspan fill="#8b949e"> 0.11%</tspan>
      </text>
      <circle cx="31" cy="233" r="6" fill="#8B949E"/>
      <text x="44" y="238" fill="#e6edf3" font-size="13" font-family="Segoe UI, Arial, sans-serif">
        <tspan font-weight="600">DTrace</tspan>
        <tspan fill="#8b949e"> 0.11%</tspan>
      </text>
      <circle cx="417" cy="233" r="6" fill="#ED8B00"/>
      <text x="430" y="238" fill="#e6edf3" font-size="13" font-family="Segoe UI, Arial, sans-serif">
        <tspan font-weight="600">Java</tspan>
        <tspan fill="#8b949e"> 0.05%</tspan>
      </text>
      <circle cx="31" cy="261" r="6" fill="#8B949E"/>
      <text x="44" y="266" fill="#e6edf3" font-size="13" font-family="Segoe UI, Arial, sans-serif">
        <tspan font-weight="600">Batchfile</tspan>
        <tspan fill="#8b949e"> 0.00%</tspan>
      </text>
</svg>