<svg xmlns="http://www.w3.org/2000/svg" width="820" height="250" viewBox="0 0 820 250">
  <rect width="820" height="250" rx="12" fill="#161b22"/>
  <text x="24" y="18" fill="#e6edf3" font-size="15" font-weight="700" font-family="Segoe UI, Arial, sans-serif">Most Used Languages</text>
  <rect x="24.0" y="24" width="290.1" height="10" fill="#3178C6" rx="2"/><rect x="314.1" y="24" width="218.5" height="10" fill="#3776AB" rx="2"/><rect x="532.6" y="24" width="81.8" height="10" fill="#563D7C" rx="2"/><rect x="614.3" y="24" width="75.4" height="10" fill="#F7DF1E" rx="2"/><rect x="689.8" y="24" width="41.1" height="10" fill="#E34F26" rx="2"/><rect x="730.9" y="24" width="30.3" height="10" fill="#DEA584" rx="2"/><rect x="761.3" y="24" width="16.0" height="10" fill="#FFD700" rx="2"/><rect x="777.2" y="24" width="8.9" height="10" fill="#A8B9CC" rx="2"/><rect x="786.1" y="24" width="4.9" height="10" fill="#89E051" rx="2"/><rect x="791.1" y="24" width="2.6" height="10" fill="#00599C" rx="2"/><rect x="793.7" y="24" width="2.2" height="10" fill="#ED8B00" rx="2"/><rect x="795.8" y="24" width="0.2" height="10" fill="#8B949E" rx="2"/>
  
      <circle cx="31" cy="65" r="6" fill="#3178C6"/>
      <text x="44" y="70" fill="#e6edf3" font-size="13" font-family="Segoe UI, Arial, sans-serif">
        <tspan font-weight="600">TypeScript</tspan>
        <tspan fill="#8b949e"> 37.58%</tspan>
      </text>
      <circle cx="417" cy="65" r="6" fill="#3776AB"/>
      <text x="430" y="70" fill="#e6edf3" font-size="13" font-family="Segoe UI, Arial, sans-serif">
        <tspan font-weight="600">Python</tspan>
        <tspan fill="#8b949e"> 28.30%</tspan>
      </text>
      <circle cx="31" cy="93" r="6" fill="#563D7C"/>
      <text x="44" y="98" fill="#e6edf3" font-size="13" font-family="Segoe UI, Arial, sans-serif">
        <tspan font-weight="600">CSS</tspan>
        <tspan fill="#8b949e"> 10.59%</tspan>
      </text>
      <circle cx="417" cy="93" r="6" fill="#F7DF1E"/>
      <text x="430" y="98" fill="#e6edf3" font-size="13" font-family="Segoe UI, Arial, sans-serif">
        <tspan font-weight="600">JavaScript</tspan>
        <tspan fill="#8b949e"> 9.77%</tspan>
      </text>
      <circle cx="31" cy="121" r="6" fill="#E34F26"/>
      <text x="44" y="126" fill="#e6edf3" font-size="13" font-family="Segoe UI, Arial, sans-serif">
        <tspan font-weight="600">HTML</tspan>
        <tspan fill="#8b949e"> 5.33%</tspan>
      </text>
      <circle cx="417" cy="121" r="6" fill="#DEA584"/>
      <text x="430" y="126" fill="#e6edf3" font-size="13" font-family="Segoe UI, Arial, sans-serif">
        <tspan font-weight="600">Rust</tspan>
        <tspan fill="#8b949e"> 3.93%</tspan>
      </text>
      <circle cx="31" cy="149" r="6" fill="#FFD700"/>
      <text x="44" y="154" fill="#e6edf3" font-size="13" font-family="Segoe UI, Arial, sans-serif">
        <tspan font-weight="600">Portugol</tspan>
        <tspan fill="#8b949e"> 2.07%</tspan>
      </text>
      <circle cx="417" cy="149" r="6" fill="#A8B9CC"/>
      <text x="430" y="154" fill="#e6edf3" font-size="13" font-family="Segoe UI, Arial, sans-serif">
        <tspan font-weight="600">C</tspan>
        <tspan fill="#8b949e"> 1.15%</tspan>
      </text>
      <circle cx="31" cy="177" r="6" fill="#89E051"/>
      <text x="44" y="182" fill="#e6edf3" font-size="13" font-family="Segoe UI, Arial, sans-serif">
        <tspan font-weight="600">Shell</tspan>
        <tspan fill="#8b949e"> 0.64%</tspan>
      </text>
      <circle cx="417" cy="177" r="6" fill="#00599C"/>
      <text x="430" y="182" fill="#e6edf3" font-size="13" font-family="Segoe UI, Arial, sans-serif">
        <tspan font-weight="600">C++</tspan>
        <tspan fill="#8b949e"> 0.34%</tspan>
      </text>
      <circle cx="31" cy="205" r="6" fill="#ED8B00"/>
      <text x="44" y="210" fill="#e6edf3" font-size="13" font-family="Segoe UI, Arial, sans-serif">
        <tspan font-weight="600">Java</tspan>
        <tspan fill="#8b949e"> 0.28%</tspan>
      </text>
      <circle cx="417" cy="205" r="6" fill="#8B949E"/>
      <text x="430" y="210" fill="#e6edf3" font-size="13" font-family="Segoe UI, Arial, sans-serif">
        <tspan font-weight="600">Batchfile</tspan>
        <tspan fill="#8b949e"> 0.02%</tspan>
      </text>
</svg>