<svg xmlns="http://www.w3.org/2000/svg" width="820" height="334" viewBox="0 0 820 334">
  <rect width="820" height="334" rx="12" fill="#161b22"/>
  <text x="24" y="18" fill="#e6edf3" font-size="15" font-weight="700" font-family="Segoe UI, Arial, sans-serif">Most Used Languages</text>
  <rect x="24.0" y="24" width="162.8" height="10" fill="#3178C6" rx="2"/><rect x="186.8" y="24" width="127.8" height="10" fill="#3776AB" rx="2"/><rect x="314.6" y="24" width="93.5" height="10" fill="#ED8B00" rx="2"/><rect x="408.1" y="24" width="91.9" height="10" fill="#A8B9CC" rx="2"/><rect x="500.0" y="24" width="59.6" height="10" fill="#8B949E" rx="2"/><rect x="559.6" y="24" width="50.1" height="10" fill="#563D7C" rx="2"/><rect x="609.7" y="24" width="46.9" height="10" fill="#F7DF1E" rx="2"/><rect x="656.6" y="24" width="42.6" height="10" fill="#E34F26" rx="2"/><rect x="699.2" y="24" width="29.3" height="10" fill="#DEA584" rx="2"/><rect x="728.5" y="24" width="26.2" height="10" fill="#8B949E" rx="2"/><rect x="754.8" y="24" width="22.1" height="10" fill="#00599C" rx="2"/><rect x="776.9" y="24" width="9.0" height="10" fill="#FFD700" rx="2"/><rect x="785.8" y="24" width="5.4" height="10" fill="#8B949E" rx="2"/><rect x="791.2" y="24" width="2.8" height="10" fill="#89E051" rx="2"/><rect x="794.0" y="24" width="1.3" height="10" fill="#8B949E" rx="2"/><rect x="795.3" y="24" width="0.5" height="10" fill="#8B949E" rx="2"/><rect x="795.8" y="24" width="0.1" height="10" fill="#8B949E" rx="2"/>
  
      <circle cx="31" cy="65" r="6" fill="#3178C6"/>
      <text x="44" y="70" fill="#e6edf3" font-size="13" font-family="Segoe UI, Arial, sans-serif">
        <tspan font-weight="600">TypeScript</tspan>
        <tspan fill="#8b949e"> 21.09%</tspan>
      </text>
      <circle cx="417" cy="65" r="6" fill="#3776AB"/>
      <text x="430" y="70" fill="#e6edf3" font-size="13" font-family="Segoe UI, Arial, sans-serif">
        <tspan font-weight="600">Python</tspan>
        <tspan fill="#8b949e"> 16.55%</tspan>
      </text>
      <circle cx="31" cy="93" r="6" fill="#ED8B00"/>
      <text x="44" y="98" fill="#e6edf3" font-size="13" font-family="Segoe UI, Arial, sans-serif">
        <tspan font-weight="600">Java</tspan>
        <tspan fill="#8b949e"> 12.11%</tspan>
      </text>
      <circle cx="417" cy="93" r="6" fill="#A8B9CC"/>
      <text x="430" y="98" fill="#e6edf3" font-size="13" font-family="Segoe UI, Arial, sans-serif">
        <tspan font-weight="600">C</tspan>
        <tspan fill="#8b949e"> 11.91%</tspan>
      </text>
      <circle cx="31" cy="121" r="6" fill="#8B949E"/>
      <text x="44" y="126" fill="#e6edf3" font-size="13" font-family="Segoe UI, Arial, sans-serif">
        <tspan font-weight="600">C#</tspan>
        <tspan fill="#8b949e"> 7.72%</tspan>
      </text>
      <circle cx="417" cy="121" r="6" fill="#563D7C"/>
      <text x="430" y="126" fill="#e6edf3" font-size="13" font-family="Segoe UI, Arial, sans-serif">
        <tspan font-weight="600">CSS</tspan>
        <tspan fill="#8b949e"> 6.49%</tspan>
      </text>
      <circle cx="31" cy="149" r="6" fill="#F7DF1E"/>
      <text x="44" y="154" fill="#e6edf3" font-size="13" font-family="Segoe UI, Arial, sans-serif">
        <tspan font-weight="600">JavaScript</tspan>
        <tspan fill="#8b949e"> 6.07%</tspan>
      </text>
      <circle cx="417" cy="149" r="6" fill="#E34F26"/>
      <text x="430" y="154" fill="#e6edf3" font-size="13" font-family="Segoe UI, Arial, sans-serif">
        <tspan font-weight="600">HTML</tspan>
        <tspan fill="#8b949e"> 5.52%</tspan>
      </text>
      <circle cx="31" cy="177" r="6" fill="#DEA584"/>
      <text x="44" y="182" fill="#e6edf3" font-size="13" font-family="Segoe UI, Arial, sans-serif">
        <tspan font-weight="600">Rust</tspan>
        <tspan fill="#8b949e"> 3.80%</tspan>
      </text>
      <circle cx="417" cy="177" r="6" fill="#8B949E"/>
      <text x="430" y="182" fill="#e6edf3" font-size="13" font-family="Segoe UI, Arial, sans-serif">
        <tspan font-weight="600">ShaderLab</tspan>
        <tspan fill="#8b949e"> 3.40%</tspan>
      </text>
      <circle cx="31" cy="205" r="6" fill="#00599C"/>
      <text x="44" y="210" fill="#e6edf3" font-size="13" font-family="Segoe UI, Arial, sans-serif">
        <tspan font-weight="600">C++</tspan>
        <tspan fill="#8b949e"> 2.86%</tspan>
      </text>
      <circle cx="417" cy="205" r="6" fill="#FFD700"/>
      <text x="430" y="210" fill="#e6edf3" font-size="13" font-family="Segoe UI, Arial, sans-serif">
        <tspan font-weight="600">Portugol</tspan>
        <tspan fill="#8b949e"> 1.16%</tspan>
      </text>
      <circle cx="31" cy="233" r="6" fill="#8B949E"/>
      <text x="44" y="238" fill="#e6edf3" font-size="13" font-family="Segoe UI, Arial, sans-serif">
        <tspan font-weight="600">HLSL</tspan>
        <tspan fill="#8b949e"> 0.70%</tspan>
      </text>
      <circle cx="417" cy="233" r="6" fill="#89E051"/>
      <text x="430" y="238" fill="#e6edf3" font-size="13" font-family="Segoe UI, Arial, sans-serif">
        <tspan font-weight="600">Shell</tspan>
        <tspan fill="#8b949e"> 0.36%</tspan>
      </text>
      <circle cx="31" cy="261" r="6" fill="#8B949E"/>
      <text x="44" y="266" fill="#e6edf3" font-size="13" font-family="Segoe UI, Arial, sans-serif">
        <tspan font-weight="600">GDScript</tspan>
        <tspan fill="#8b949e"> 0.17%</tspan>
      </text>
      <circle cx="417" cy="261" r="6" fill="#8B949E"/>
      <text x="430" y="266" fill="#e6edf3" font-size="13" font-family="Segoe UI, Arial, sans-serif">
        <tspan font-weight="600">Makefile</tspan>
        <tspan fill="#8b949e"> 0.06%</tspan>
      </text>
      <circle cx="31" cy="289" r="6" fill="#8B949E"/>
      <text x="44" y="294" fill="#e6edf3" font-size="13" font-family="Segoe UI, Arial, sans-serif">
        <tspan font-weight="600">Dockerfile</tspan>
        <tspan fill="#8b949e"> 0.01%</tspan>
      </text>
</svg>