<svg xmlns="http://www.w3.org/2000/svg" width="820" height="306" viewBox="0 0 820 306">
  <rect width="820" height="306" rx="12" fill="#161b22"/>
  <text x="24" y="18" fill="#e6edf3" font-size="15" font-weight="700" font-family="Segoe UI, Arial, sans-serif">Most Used Languages</text>
  <rect x="24.0" y="24" width="224.8" height="10" fill="#3178C6" rx="2"/><rect x="248.8" y="24" width="172.9" height="10" fill="#3776AB" rx="2"/><rect x="421.7" y="24" width="82.4" height="10" fill="#8B949E" rx="2"/><rect x="504.0" y="24" width="63.5" height="10" fill="#563D7C" rx="2"/><rect x="567.5" y="24" width="58.4" height="10" fill="#F7DF1E" rx="2"/><rect x="625.9" y="24" width="37.8" height="10" fill="#E34F26" rx="2"/><rect x="663.8" y="24" width="36.3" height="10" fill="#8B949E" rx="2"/><rect x="700.0" y="24" width="36.2" height="10" fill="#DEA584" rx="2"/><rect x="736.2" y="24" width="29.9" height="10" fill="#A8B9CC" rx="2"/><rect x="766.1" y="24" width="12.4" height="10" fill="#FFD700" rx="2"/><rect x="778.5" y="24" width="7.5" height="10" fill="#8B949E" rx="2"/><rect x="786.0" y="24" width="3.9" height="10" fill="#89E051" rx="2"/><rect x="789.8" y="24" width="2.0" height="10" fill="#00599C" rx="2"/><rect x="791.8" y="24" width="1.9" height="10" fill="#8B949E" rx="2"/><rect x="793.7" y="24" width="1.7" height="10" fill="#ED8B00" rx="2"/><rect x="795.4" y="24" width="0.7" height="10" fill="#8B949E" rx="2"/>
  
      <circle cx="31" cy="65" r="6" fill="#3178C6"/>
      <text x="44" y="70" fill="#e6edf3" font-size="13" font-family="Segoe UI, Arial, sans-serif">
        <tspan font-weight="600">TypeScript</tspan>
        <tspan fill="#8b949e"> 29.12%</tspan>
      </text>
      <circle cx="417" cy="65" r="6" fill="#3776AB"/>
      <text x="430" y="70" fill="#e6edf3" font-size="13" font-family="Segoe UI, Arial, sans-serif">
        <tspan font-weight="600">Python</tspan>
        <tspan fill="#8b949e"> 22.39%</tspan>
      </text>
      <circle cx="31" cy="93" r="6" fill="#8B949E"/>
      <text x="44" y="98" fill="#e6edf3" font-size="13" font-family="Segoe UI, Arial, sans-serif">
        <tspan font-weight="600">C#</tspan>
        <tspan fill="#8b949e"> 10.67%</tspan>
      </text>
      <circle cx="417" cy="93" r="6" fill="#563D7C"/>
      <text x="430" y="98" fill="#e6edf3" font-size="13" font-family="Segoe UI, Arial, sans-serif">
        <tspan font-weight="600">CSS</tspan>
        <tspan fill="#8b949e"> 8.22%</tspan>
      </text>
      <circle cx="31" cy="121" r="6" fill="#F7DF1E"/>
      <text x="44" y="126" fill="#e6edf3" font-size="13" font-family="Segoe UI, Arial, sans-serif">
        <tspan font-weight="600">JavaScript</tspan>
        <tspan fill="#8b949e"> 7.57%</tspan>
      </text>
      <circle cx="417" cy="121" r="6" fill="#E34F26"/>
      <text x="430" y="126" fill="#e6edf3" font-size="13" font-family="Segoe UI, Arial, sans-serif">
        <tspan font-weight="600">HTML</tspan>
        <tspan fill="#8b949e"> 4.90%</tspan>
      </text>
      <circle cx="31" cy="149" r="6" fill="#8B949E"/>
      <text x="44" y="154" fill="#e6edf3" font-size="13" font-family="Segoe UI, Arial, sans-serif">
        <tspan font-weight="600">ShaderLab</tspan>
        <tspan fill="#8b949e"> 4.70%</tspan>
      </text>
      <circle cx="417" cy="149" r="6" fill="#DEA584"/>
      <text x="430" y="154" fill="#e6edf3" font-size="13" font-family="Segoe UI, Arial, sans-serif">
        <tspan font-weight="600">Rust</tspan>
        <tspan fill="#8b949e"> 4.69%</tspan>
      </text>
      <circle cx="31" cy="177" r="6" fill="#A8B9CC"/>
      <text x="44" y="182" fill="#e6edf3" font-size="13" font-family="Segoe UI, Arial, sans-serif">
        <tspan font-weight="600">C</tspan>
        <tspan fill="#8b949e"> 3.87%</tspan>
      </text>
      <circle cx="417" cy="177" r="6" fill="#FFD700"/>
      <text x="430" y="182" fill="#e6edf3" font-size="13" font-family="Segoe UI, Arial, sans-serif">
        <tspan font-weight="600">Portugol</tspan>
        <tspan fill="#8b949e"> 1.60%</tspan>
      </text>
      <circle cx="31" cy="205" r="6" fill="#8B949E"/>
      <text x="44" y="210" fill="#e6edf3" font-size="13" font-family="Segoe UI, Arial, sans-serif">
        <tspan font-weight="600">HLSL</tspan>
        <tspan fill="#8b949e"> 0.97%</tspan>
      </text>
      <circle cx="417" cy="205" r="6" fill="#89E051"/>
      <text x="430" y="210" fill="#e6edf3" font-size="13" font-family="Segoe UI, Arial, sans-serif">
        <tspan font-weight="600">Shell</tspan>
        <tspan fill="#8b949e"> 0.50%</tspan>
      </text>
      <circle cx="31" cy="233" r="6" fill="#00599C"/>
      <text x="44" y="238" fill="#e6edf3" font-size="13" font-family="Segoe UI, Arial, sans-serif">
        <tspan font-weight="600">C++</tspan>
        <tspan fill="#8b949e"> 0.26%</tspan>
      </text>
      <circle cx="417" cy="233" r="6" fill="#8B949E"/>
      <text x="430" y="238" fill="#e6edf3" font-size="13" font-family="Segoe UI, Arial, sans-serif">
        <tspan font-weight="600">GDScript</tspan>
        <tspan fill="#8b949e"> 0.24%</tspan>
      </text>
      <circle cx="31" cy="261" r="6" fill="#ED8B00"/>
      <text x="44" y="266" fill="#e6edf3" font-size="13" font-family="Segoe UI, Arial, sans-serif">
        <tspan font-weight="600">Java</tspan>
        <tspan fill="#8b949e"> 0.22%</tspan>
      </text>
      <circle cx="417" cy="261" r="6" fill="#8B949E"/>
      <text x="430" y="266" fill="#e6edf3" font-size="13" font-family="Segoe UI, Arial, sans-serif">
        <tspan font-weight="600">Makefile</tspan>
        <tspan fill="#8b949e"> 0.09%</tspan>
      </text>
</svg>