<svg xmlns="http://www.w3.org/2000/svg" width="820" height="306" viewBox="0 0 820 306">
  <rect width="820" height="306" rx="12" fill="#161b22"/>
  <text x="24" y="18" fill="#e6edf3" font-size="15" font-weight="700" font-family="Segoe UI, Arial, sans-serif">Most Used Languages</text>
  <rect x="24.0" y="24" width="222.5" height="10" fill="#3178C6" rx="2"/><rect x="246.5" y="24" width="171.0" height="10" fill="#3776AB" rx="2"/><rect x="417.5" y="24" width="81.5" height="10" fill="#8B949E" rx="2"/><rect x="499.0" y="24" width="63.5" height="10" fill="#563D7C" rx="2"/><rect x="562.5" y="24" width="57.8" height="10" fill="#F7DF1E" rx="2"/><rect x="620.3" y="24" width="37.4" height="10" fill="#E34F26" rx="2"/><rect x="657.7" y="24" width="35.9" height="10" fill="#8B949E" rx="2"/><rect x="693.6" y="24" width="35.8" height="10" fill="#DEA584" rx="2"/><rect x="729.5" y="24" width="29.6" height="10" fill="#A8B9CC" rx="2"/><rect x="759.0" y="24" width="12.2" height="10" fill="#FFD700" rx="2"/><rect x="771.2" y="24" width="9.0" height="10" fill="#ED8B00" rx="2"/><rect x="780.3" y="24" width="7.4" height="10" fill="#8B949E" rx="2"/><rect x="787.7" y="24" width="3.8" height="10" fill="#89E051" rx="2"/><rect x="791.4" y="24" width="2.0" height="10" fill="#00599C" rx="2"/><rect x="793.5" y="24" width="1.9" height="10" fill="#8B949E" rx="2"/><rect x="795.3" y="24" width="0.7" height="10" fill="#8B949E" rx="2"/>
  
      <circle cx="31" cy="65" r="6" fill="#3178C6"/>
      <text x="44" y="70" fill="#e6edf3" font-size="13" font-family="Segoe UI, Arial, sans-serif">
        <tspan font-weight="600">TypeScript</tspan>
        <tspan fill="#8b949e"> 28.82%</tspan>
      </text>
      <circle cx="417" cy="65" r="6" fill="#3776AB"/>
      <text x="430" y="70" fill="#e6edf3" font-size="13" font-family="Segoe UI, Arial, sans-serif">
        <tspan font-weight="600">Python</tspan>
        <tspan fill="#8b949e"> 22.15%</tspan>
      </text>
      <circle cx="31" cy="93" r="6" fill="#8B949E"/>
      <text x="44" y="98" fill="#e6edf3" font-size="13" font-family="Segoe UI, Arial, sans-serif">
        <tspan font-weight="600">C#</tspan>
        <tspan fill="#8b949e"> 10.56%</tspan>
      </text>
      <circle cx="417" cy="93" r="6" fill="#563D7C"/>
      <text x="430" y="98" fill="#e6edf3" font-size="13" font-family="Segoe UI, Arial, sans-serif">
        <tspan font-weight="600">CSS</tspan>
        <tspan fill="#8b949e"> 8.22%</tspan>
      </text>
      <circle cx="31" cy="121" r="6" fill="#F7DF1E"/>
      <text x="44" y="126" fill="#e6edf3" font-size="13" font-family="Segoe UI, Arial, sans-serif">
        <tspan font-weight="600">JavaScript</tspan>
        <tspan fill="#8b949e"> 7.49%</tspan>
      </text>
      <circle cx="417" cy="121" r="6" fill="#E34F26"/>
      <text x="430" y="126" fill="#e6edf3" font-size="13" font-family="Segoe UI, Arial, sans-serif">
        <tspan font-weight="600">HTML</tspan>
        <tspan fill="#8b949e"> 4.85%</tspan>
      </text>
      <circle cx="31" cy="149" r="6" fill="#8B949E"/>
      <text x="44" y="154" fill="#e6edf3" font-size="13" font-family="Segoe UI, Arial, sans-serif">
        <tspan font-weight="600">ShaderLab</tspan>
        <tspan fill="#8b949e"> 4.65%</tspan>
      </text>
      <circle cx="417" cy="149" r="6" fill="#DEA584"/>
      <text x="430" y="154" fill="#e6edf3" font-size="13" font-family="Segoe UI, Arial, sans-serif">
        <tspan font-weight="600">Rust</tspan>
        <tspan fill="#8b949e"> 4.64%</tspan>
      </text>
      <circle cx="31" cy="177" r="6" fill="#A8B9CC"/>
      <text x="44" y="182" fill="#e6edf3" font-size="13" font-family="Segoe UI, Arial, sans-serif">
        <tspan font-weight="600">C</tspan>
        <tspan fill="#8b949e"> 3.83%</tspan>
      </text>
      <circle cx="417" cy="177" r="6" fill="#FFD700"/>
      <text x="430" y="182" fill="#e6edf3" font-size="13" font-family="Segoe UI, Arial, sans-serif">
        <tspan font-weight="600">Portugol</tspan>
        <tspan fill="#8b949e"> 1.58%</tspan>
      </text>
      <circle cx="31" cy="205" r="6" fill="#ED8B00"/>
      <text x="44" y="210" fill="#e6edf3" font-size="13" font-family="Segoe UI, Arial, sans-serif">
        <tspan font-weight="600">Java</tspan>
        <tspan fill="#8b949e"> 1.17%</tspan>
      </text>
      <circle cx="417" cy="205" r="6" fill="#8B949E"/>
      <text x="430" y="210" fill="#e6edf3" font-size="13" font-family="Segoe UI, Arial, sans-serif">
        <tspan font-weight="600">HLSL</tspan>
        <tspan fill="#8b949e"> 0.96%</tspan>
      </text>
      <circle cx="31" cy="233" r="6" fill="#89E051"/>
      <text x="44" y="238" fill="#e6edf3" font-size="13" font-family="Segoe UI, Arial, sans-serif">
        <tspan font-weight="600">Shell</tspan>
        <tspan fill="#8b949e"> 0.49%</tspan>
      </text>
      <circle cx="417" cy="233" r="6" fill="#00599C"/>
      <text x="430" y="238" fill="#e6edf3" font-size="13" font-family="Segoe UI, Arial, sans-serif">
        <tspan font-weight="600">C++</tspan>
        <tspan fill="#8b949e"> 0.26%</tspan>
      </text>
      <circle cx="31" cy="261" r="6" fill="#8B949E"/>
      <text x="44" y="266" fill="#e6edf3" font-size="13" font-family="Segoe UI, Arial, sans-serif">
        <tspan font-weight="600">GDScript</tspan>
        <tspan fill="#8b949e"> 0.24%</tspan>
      </text>
      <circle cx="417" cy="261" r="6" fill="#8B949E"/>
      <text x="430" y="266" fill="#e6edf3" font-size="13" font-family="Segoe UI, Arial, sans-serif">
        <tspan font-weight="600">Makefile</tspan>
        <tspan fill="#8b949e"> 0.09%</tspan>
      </text>
</svg>